<?xml version="1.0" encoding="utf-8"?>
<!-- Generator: Adobe Illustrator 24.2.1, SVG Export Plug-In . SVG Version: 6.00 Build 0)  -->
<svg version="1.1" id="Layer_1" xmlns="http://www.w3.org/2000/svg" xmlns:xlink="http://www.w3.org/1999/xlink" x="0px" y="0px"
	 viewBox="0 0 800 600" style="enable-background:new 0 0 800 600;" xml:space="preserve">
<style type="text/css">
	.st0{fill:#122346;}
	.st1{fill:#FFFFFF;}
	.st2{fill:#EDB902;}
</style>
<rect class="st0" width="800" height="600"/>
<g>
	<g>
		<path class="st1" d="M530.54,205.5h-51.01c0,0,4.48-86.11-84.09-86.11c0,0-80.4-0.4-80,86.11h-51.03l-22.29,242.37
			c-1.62,17.58,12.22,32.75,29.88,32.75h256c17.9,0,31.82-15.58,29.81-33.36L530.54,205.5z M340.34,204.69c0,0,1.15-60.64,60-60.41
			c0,0,53.46,0,56.32,62.45L340.34,204.69z"/>
		<path class="st2" d="M485.09,383.97H311.5c-4.59,0-8.31,3.72-8.31,8.31v18.13H493.4v-18.13
			C493.4,387.69,489.68,383.97,485.09,383.97z"/>
		<path class="st2" d="M476.87,355.09c-8.7-32.55-38.35-55.1-72.05-55.1v-5.24c4.2-1.83,7.25-5.39,7.97-9.63
			c0.13-0.66,0.19-1.34,0.19-2.02c0-3.37-1.43-6.44-3.82-8.74c-2.69-2.62-6.59-4.28-10.91-4.28c-5.22,0-9.81,2.41-12.41,6.01
			c-1.49,2.02-2.34,4.43-2.34,7.01c0,0.21,0,0.43,0.04,0.64c0.28,5.63,4.6,10.32,10.47,11.85v4.41h-0.83
			c-30.78,0-58.62,18.8-69.55,47.55c-3.24,8.5-5.82,18.5-7.38,30.2h164.49C480.75,377.75,480.28,367.88,476.87,355.09z"/>
	</g>
</g>
</svg>
