<?xml version="1.0" encoding="utf-8"?>
<!-- Generator: Adobe Illustrator 24.2.1, SVG Export Plug-In . SVG Version: 6.00 Build 0)  -->
<svg version="1.1" id="Layer_1" xmlns="http://www.w3.org/2000/svg" xmlns:xlink="http://www.w3.org/1999/xlink" x="0px" y="0px"
	 viewBox="0 0 800 600" style="enable-background:new 0 0 800 600;" xml:space="preserve">
<style type="text/css">
	.st0{fill:#122346;}
	.st1{fill:#EDB902;}
</style>
<g>
	<path class="st0" d="M527.22,207.9h-49.71c0,0,4.36-83.92-81.95-83.92c0,0-78.36-0.39-77.96,83.92h-49.73l-21.72,236.2
		c-1.58,17.13,11.91,31.92,29.12,31.92h249.48c17.45,0,31.01-15.18,29.05-32.52L527.22,207.9z M341.86,207.11
		c0,0,1.12-59.1,58.48-58.87c0,0,52.1,0,54.88,60.87L341.86,207.11z"/>
	<path class="st1" d="M486.44,381.83H310.25c-2.53,0-4.59,2.05-4.59,4.59v21.18h185.37v-21.18
		C491.03,383.89,488.97,381.83,486.44,381.83z"/>
	<path class="st1" d="M474.91,353.69c-8.48-31.72-37.37-53.7-70.21-53.7v-5.11c4.09-1.79,7.06-5.26,7.77-9.39
		c0.12-0.64,0.19-1.31,0.19-1.97c0-3.28-1.39-6.27-3.72-8.52c-2.62-2.56-6.42-4.18-10.64-4.18c-5.09,0-9.56,2.35-12.09,5.86
		c-1.45,1.97-2.29,4.32-2.29,6.83c0,0.21,0,0.42,0.04,0.62c0.27,5.48,4.49,10.05,10.2,11.55v4.3h-0.81
		c-30,0-57.13,18.32-67.78,46.34c-3.16,8.29-5.67,18.03-7.19,29.44h160.31C478.69,375.77,478.23,366.15,474.91,353.69z"/>
</g>
</svg>
