<?xml version="1.0" encoding="utf-8"?>
<!-- Generator: Adobe Illustrator 24.2.1, SVG Export Plug-In . SVG Version: 6.00 Build 0)  -->
<svg version="1.1" id="Layer_1" xmlns="http://www.w3.org/2000/svg" xmlns:xlink="http://www.w3.org/1999/xlink" x="0px" y="0px"
	 viewBox="0 0 800 600" style="enable-background:new 0 0 800 600;" xml:space="preserve">
<style type="text/css">
	.st0{fill:#EDB902;}
	.st1{fill:#122346;}
	.st2{fill:#FFFFFF;}
</style>
<rect class="st0" width="800" height="600"/>
<g>
	<g>
		<path class="st1" d="M207.71,247.16H186.5c0,0,1.86-35.81-34.97-35.81c0,0-33.43-0.17-33.27,35.81H97.05l-9.27,100.79
			c-0.67,7.31,5.08,13.62,12.42,13.62h106.46c7.44,0,13.23-6.48,12.4-13.87L207.71,247.16z M128.62,246.83
			c0,0,0.48-25.22,24.95-25.12c0,0,22.23,0,23.42,25.97L128.62,246.83z"/>
		<path class="st2" d="M187.68,321.38h-69.92c-2.53,0-4.59,2.05-4.59,4.59v6.41h79.1v-6.41
			C192.27,323.43,190.22,321.38,187.68,321.38z"/>
		<path class="st2" d="M185.39,309.37c-3.62-13.54-15.95-22.91-29.96-22.91v-2.18c1.75-0.76,3.01-2.24,3.32-4.01
			c0.05-0.27,0.08-0.56,0.08-0.84c0-1.4-0.59-2.68-1.59-3.63c-1.12-1.09-2.74-1.78-4.54-1.78c-2.17,0-4.08,1-5.16,2.5
			c-0.62,0.84-0.98,1.84-0.98,2.92c0,0.09,0,0.18,0.02,0.27c0.12,2.34,1.91,4.29,4.35,4.93v1.83h-0.35
			c-12.8,0-24.38,7.82-28.92,19.78c-1.35,3.54-2.42,7.69-3.07,12.56h68.4C187.01,318.79,186.81,314.69,185.39,309.37z"/>
	</g>
	<g>
		<path class="st1" d="M287.25,340.32h53.99v17.73h-81.58V345.1l52.96-76.28h-52.89v-17.88h80.33v12.65L287.25,340.32z"/>
		<g>
			<path class="st2" d="M376.59,253.48c-0.56-1.35-1.36-2.51-2.39-3.49c-1.03-0.98-2.28-1.74-3.75-2.28
				c-1.47-0.54-3.11-0.81-4.93-0.81c-3.68,0-6.58,1.03-8.72,3.09c-2.13,2.06-3.2,4.68-3.2,7.87c0,1.62,0.28,3.1,0.85,4.45
				c0.56,1.35,1.36,2.51,2.39,3.49c1.03,0.98,2.28,1.74,3.75,2.28c1.47,0.54,3.11,0.81,4.93,0.81c1.81,0,3.46-0.27,4.93-0.81
				c1.47-0.54,2.72-1.3,3.75-2.28c1.03-0.98,1.83-2.14,2.39-3.49c0.56-1.35,0.85-2.83,0.85-4.45
				C377.43,256.29,377.15,254.83,376.59,253.48z"/>
			<rect x="354.85" y="278.45" class="st1" width="21.33" height="79.59"/>
		</g>
		<path class="st1" d="M436.8,336.05c0-1.13-0.22-2.16-0.66-3.09c-0.44-0.93-1.28-1.8-2.5-2.61c-1.23-0.81-2.89-1.58-5-2.32
			c-2.11-0.74-4.83-1.45-8.17-2.13c-4.07-0.88-7.83-1.99-11.29-3.31c-3.46-1.32-6.45-2.97-8.97-4.93c-2.53-1.96-4.5-4.24-5.92-6.84
			c-1.42-2.6-2.13-5.61-2.13-9.05c0-3.33,0.72-6.5,2.17-9.49c1.45-2.99,3.53-5.63,6.25-7.91c2.72-2.28,6.06-4.08,10-5.41
			c3.95-1.32,8.4-1.99,13.35-1.99c5.15,0,9.78,0.64,13.9,1.91c4.12,1.28,7.61,3.05,10.48,5.33c2.87,2.28,5.08,4.99,6.62,8.13
			c1.55,3.14,2.32,6.57,2.32,10.3h-21.26c0-3.04-0.98-5.55-2.94-7.54c-1.96-1.99-5.03-2.98-9.19-2.98c-3.58,0-6.35,0.81-8.31,2.43
			c-1.96,1.62-2.94,3.68-2.94,6.18c0,1.18,0.26,2.22,0.77,3.13c0.51,0.91,1.35,1.74,2.5,2.5c1.15,0.76,2.67,1.46,4.56,2.1
			c1.89,0.64,4.2,1.23,6.95,1.77c4.31,0.83,8.31,1.86,11.99,3.09c3.68,1.23,6.85,2.81,9.53,4.74c2.67,1.94,4.77,4.29,6.29,7.06
			c1.52,2.77,2.28,6.12,2.28,10.04c0,3.53-0.79,6.78-2.35,9.75c-1.57,2.97-3.81,5.53-6.73,7.69c-2.92,2.16-6.44,3.85-10.56,5.08
			c-4.12,1.22-8.73,1.84-13.83,1.84c-5.59,0-10.52-0.79-14.79-2.35c-4.27-1.57-7.86-3.63-10.78-6.18c-2.92-2.55-5.11-5.42-6.58-8.61
			c-1.47-3.19-2.21-6.4-2.21-9.64h20.15c0.1,2.06,0.55,3.84,1.36,5.33c0.81,1.5,1.88,2.71,3.2,3.64c1.32,0.93,2.86,1.62,4.6,2.06
			c1.74,0.44,3.57,0.66,5.48,0.66c4.07,0,7.15-0.77,9.23-2.32C435.75,340.57,436.8,338.55,436.8,336.05z"/>
		<path class="st1" d="M491.89,287.13c2.65-3.19,5.75-5.68,9.3-7.47c3.56-1.79,7.54-2.68,11.95-2.68c3.92,0,7.5,0.55,10.74,1.66
			c3.24,1.1,6.01,2.89,8.31,5.37c2.3,2.48,4.08,5.68,5.33,9.6c1.25,3.92,1.88,8.68,1.88,14.27v50.17h-21.26v-50.31
			c0-2.55-0.28-4.68-0.85-6.4c-0.57-1.72-1.39-3.1-2.46-4.16c-1.08-1.05-2.42-1.8-4.01-2.24c-1.59-0.44-3.4-0.66-5.41-0.66
			c-3.34,0-6.11,0.65-8.31,1.95c-2.21,1.3-3.95,3.05-5.22,5.26v56.57h-21.26V245.06h21.26V287.13z"/>
		<path class="st1" d="M552.14,317.51c0-5.79,0.83-11.16,2.5-16.11c1.67-4.95,4.09-9.23,7.28-12.84c3.19-3.6,7.12-6.44,11.81-8.5
			c4.68-2.06,10.02-3.09,16-3.09c6.03,0,11.4,1.03,16.11,3.09c4.71,2.06,8.67,4.89,11.88,8.5c3.21,3.6,5.65,7.88,7.32,12.84
			c1.67,4.95,2.5,10.32,2.5,16.11v1.54c0,5.84-0.83,11.22-2.5,16.15c-1.67,4.93-4.11,9.19-7.32,12.8c-3.21,3.6-7.15,6.43-11.81,8.46
			c-4.66,2.03-10,3.05-16.04,3.05c-6.03,0-11.39-1.02-16.07-3.05c-4.68-2.03-8.63-4.86-11.84-8.46c-3.21-3.6-5.65-7.87-7.32-12.8
			c-1.67-4.93-2.5-10.31-2.5-16.15V317.51z M573.4,319.06c0,3.24,0.29,6.28,0.88,9.12c0.59,2.84,1.53,5.31,2.83,7.39
			c1.3,2.08,2.99,3.74,5.08,4.96c2.08,1.23,4.65,1.84,7.69,1.84c2.94,0,5.45-0.61,7.54-1.84c2.08-1.22,3.79-2.88,5.11-4.96
			c1.32-2.08,2.28-4.55,2.87-7.39c0.59-2.84,0.88-5.89,0.88-9.12v-1.54c0-3.14-0.29-6.12-0.88-8.94c-0.59-2.82-1.55-5.3-2.87-7.43
			c-1.32-2.13-3.04-3.83-5.15-5.08c-2.11-1.25-4.66-1.88-7.65-1.88c-2.94,0-5.46,0.63-7.54,1.88c-2.09,1.25-3.78,2.94-5.08,5.08
			c-1.3,2.13-2.24,4.61-2.83,7.43c-0.59,2.82-0.88,5.8-0.88,8.94V319.06z"/>
		<path class="st1" d="M712.28,318.98c0,5.79-0.67,11.16-2.02,16.11c-1.35,4.95-3.32,9.23-5.92,12.84c-2.6,3.6-5.82,6.44-9.67,8.5
			c-3.85,2.06-8.28,3.09-13.28,3.09c-4.22,0-7.93-0.74-11.14-2.21s-5.99-3.53-8.35-6.18v37.52h-21.26V278.45h19.71l0.74,7.8
			c2.45-2.94,5.31-5.22,8.57-6.84c3.26-1.62,7.12-2.43,11.59-2.43c5.05,0,9.51,0.97,13.39,2.91c3.87,1.94,7.11,4.68,9.71,8.24
			c2.6,3.56,4.57,7.82,5.92,12.8c1.35,4.98,2.02,10.48,2.02,16.51V318.98z M691.02,317.44c0-3.28-0.28-6.34-0.85-9.16
			c-0.56-2.82-1.46-5.27-2.68-7.36c-1.23-2.08-2.81-3.71-4.74-4.89c-1.94-1.18-4.3-1.77-7.1-1.77c-3.48,0-6.34,0.65-8.57,1.95
			c-2.23,1.3-3.96,3.2-5.19,5.7v32.59c1.22,2.45,2.95,4.38,5.19,5.77c2.23,1.4,5.14,2.1,8.72,2.1c2.8,0,5.16-0.61,7.1-1.84
			c1.94-1.22,3.51-2.91,4.71-5.04c1.2-2.13,2.07-4.62,2.61-7.47c0.54-2.84,0.81-5.86,0.81-9.05V317.44z"/>
	</g>
</g>
</svg>
