<?xml version="1.0" encoding="utf-8"?>
<!-- Generator: Adobe Illustrator 24.2.1, SVG Export Plug-In . SVG Version: 6.00 Build 0)  -->
<svg version="1.1" id="Layer_1" xmlns="http://www.w3.org/2000/svg" xmlns:xlink="http://www.w3.org/1999/xlink" x="0px" y="0px"
	 viewBox="0 0 800 600" style="enable-background:new 0 0 800 600;" xml:space="preserve">
<style type="text/css">
	.st0{fill:#EDB902;}
	.st1{fill:#122346;}
	.st2{fill:#FFFFFF;}
</style>
<rect class="st0" width="800" height="600"/>
<g>
	<g>
		<path class="st1" d="M541.61,197.48h-55.33c0,0,4.86-93.42-91.22-93.42c0,0-87.22-0.44-86.78,93.42h-55.36l-24.18,262.93
			c-1.75,19.07,13.26,35.53,32.41,35.53h277.71c19.42,0,34.52-16.9,32.34-36.19L541.61,197.48z M335.28,196.6
			c0,0,1.25-65.79,65.09-65.53c0,0,57.99,0,61.09,67.75L335.28,196.6z"/>
		<path class="st2" d="M493.02,391.09H303.29c-4.59,0-8.31,3.72-8.31,8.31v20.37h206.34V399.4
			C501.32,394.81,497.61,391.09,493.02,391.09z"/>
		<path class="st2" d="M483.39,359.76c-9.43-35.31-41.6-59.77-78.16-59.77v-5.69c4.56-1.99,7.86-5.85,8.65-10.45
			c0.14-0.72,0.21-1.46,0.21-2.2c0-3.65-1.55-6.98-4.14-9.48c-2.91-2.84-7.15-4.65-11.84-4.65c-5.67,0-10.64,2.61-13.46,6.52
			c-1.62,2.2-2.54,4.81-2.54,7.61c0,0.23,0,0.46,0.05,0.69c0.3,6.1,4.99,11.19,11.35,12.86v4.79h-0.9
			c-33.39,0-63.59,20.39-75.45,51.59c-3.51,9.23-6.31,20.07-8,32.77h178.44C487.59,384.34,487.09,373.64,483.39,359.76z"/>
	</g>
</g>
</svg>
