<?xml version="1.0" encoding="utf-8"?>
<!-- Generator: Adobe Illustrator 24.2.1, SVG Export Plug-In . SVG Version: 6.00 Build 0)  -->
<svg version="1.1" id="Layer_1" xmlns="http://www.w3.org/2000/svg" xmlns:xlink="http://www.w3.org/1999/xlink" x="0px" y="0px"
	 viewBox="0 0 800 600" style="enable-background:new 0 0 800 600;" xml:space="preserve">
<style type="text/css">
	.st0{fill:#122346;}
	.st1{fill:#EDB902;}
</style>
<g>
	<g>
		<path class="st0" d="M210.54,247.94h-20.9c0,0,1.83-35.28-34.45-35.28c0,0-32.94-0.17-32.78,35.28H101.5l-9.13,99.31
			c-0.66,7.2,5.01,13.42,12.24,13.42H209.5c7.33,0,13.04-6.38,12.21-13.67L210.54,247.94z M132.61,247.61
			c0,0,0.47-24.85,24.58-24.75c0,0,21.9,0,23.07,25.59L132.61,247.61z"/>
		<path class="st1" d="M190.74,321.07h-68.76c-2.53,0-4.59,2.05-4.59,4.59v6.25h77.93v-6.25
			C195.33,323.12,193.27,321.07,190.74,321.07z"/>
		<path class="st1" d="M188.55,309.23c-3.56-13.34-15.71-22.58-29.52-22.58v-2.15c1.72-0.75,2.97-2.21,3.27-3.95
			c0.05-0.27,0.08-0.55,0.08-0.83c0-1.38-0.59-2.64-1.56-3.58c-1.1-1.07-2.7-1.76-4.47-1.76c-2.14,0-4.02,0.99-5.08,2.46
			c-0.61,0.83-0.96,1.82-0.96,2.87c0,0.09,0,0.17,0.02,0.26c0.11,2.31,1.89,4.23,4.29,4.86v1.81h-0.34
			c-12.61,0-24.02,7.7-28.5,19.48c-1.33,3.48-2.38,7.58-3.02,12.38h67.4C190.14,318.52,189.95,314.47,188.55,309.23z"/>
	</g>
	<g>
		<path class="st0" d="M288.91,339.72h53.2v17.47h-80.38v-12.76l52.18-75.16H261.8v-17.61h79.15v12.47L288.91,339.72z"/>
		<g>
			<path class="st1" d="M376.93,254.16c-0.56-1.33-1.34-2.48-2.36-3.44c-1.01-0.97-2.25-1.71-3.7-2.25c-1.45-0.53-3.07-0.8-4.86-0.8
				c-3.62,0-6.49,1.01-8.59,3.04c-2.1,2.03-3.15,4.61-3.15,7.75c0,1.59,0.28,3.06,0.83,4.38c0.55,1.33,1.34,2.48,2.36,3.44
				c1.01,0.97,2.25,1.72,3.7,2.25c1.45,0.53,3.07,0.8,4.86,0.8c1.79,0,3.41-0.26,4.86-0.8c1.45-0.53,2.68-1.28,3.7-2.25
				c1.01-0.97,1.8-2.11,2.36-3.44c0.55-1.33,0.83-2.79,0.83-4.38C377.77,256.93,377.49,255.49,376.93,254.16z"/>
			<rect x="355.52" y="278.77" class="st0" width="21.02" height="78.42"/>
		</g>
		<path class="st0" d="M436.25,335.52c0-1.11-0.22-2.13-0.65-3.04c-0.44-0.92-1.26-1.78-2.46-2.57c-1.21-0.8-2.85-1.56-4.93-2.28
			c-2.08-0.72-4.76-1.42-8.04-2.1c-4.01-0.87-7.72-1.96-11.13-3.26c-3.41-1.3-6.35-2.92-8.84-4.86c-2.49-1.93-4.43-4.18-5.83-6.74
			c-1.4-2.56-2.1-5.53-2.1-8.91c0-3.29,0.71-6.4,2.14-9.35c1.42-2.95,3.48-5.54,6.16-7.79c2.68-2.25,5.97-4.02,9.86-5.33
			c3.89-1.3,8.27-1.96,13.15-1.96c5.07,0,9.64,0.63,13.7,1.88c4.06,1.26,7.5,3.01,10.33,5.25c2.83,2.25,5,4.92,6.52,8.01
			c1.52,3.09,2.28,6.48,2.28,10.15h-20.95c0-3-0.97-5.47-2.9-7.43c-1.93-1.96-4.95-2.94-9.06-2.94c-3.53,0-6.26,0.8-8.19,2.39
			c-1.93,1.59-2.9,3.62-2.9,6.09c0,1.16,0.25,2.19,0.76,3.08c0.51,0.89,1.33,1.72,2.46,2.46c1.14,0.75,2.63,1.44,4.49,2.07
			c1.86,0.63,4.14,1.21,6.85,1.74c4.25,0.82,8.19,1.84,11.81,3.04c3.62,1.21,6.75,2.77,9.39,4.67c2.63,1.91,4.7,4.23,6.2,6.96
			c1.5,2.73,2.25,6.03,2.25,9.89c0,3.48-0.77,6.68-2.32,9.6c-1.55,2.92-3.76,5.45-6.63,7.57c-2.87,2.13-6.34,3.79-10.4,5
			c-4.06,1.21-8.6,1.81-13.63,1.81c-5.51,0-10.36-0.77-14.57-2.32c-4.2-1.55-7.74-3.58-10.62-6.09c-2.88-2.51-5.04-5.34-6.49-8.48
			c-1.45-3.14-2.17-6.3-2.17-9.49h19.86c0.1,2.03,0.54,3.78,1.34,5.25c0.8,1.47,1.85,2.67,3.15,3.59c1.3,0.92,2.81,1.59,4.53,2.03
			c1.71,0.43,3.51,0.65,5.4,0.65c4.01,0,7.04-0.76,9.1-2.28C435.23,339.98,436.25,337.98,436.25,335.52z"/>
		<path class="st0" d="M490.54,287.32c2.61-3.14,5.66-5.59,9.17-7.36c3.5-1.76,7.43-2.65,11.78-2.65c3.87,0,7.39,0.54,10.58,1.63
			c3.19,1.09,5.92,2.85,8.19,5.29c2.27,2.44,4.02,5.59,5.25,9.46c1.23,3.87,1.85,8.55,1.85,14.06v49.43h-20.95v-49.57
			c0-2.51-0.28-4.61-0.83-6.31c-0.56-1.69-1.37-3.06-2.43-4.1c-1.06-1.04-2.38-1.78-3.95-2.21c-1.57-0.43-3.35-0.65-5.33-0.65
			c-3.29,0-6.02,0.64-8.19,1.92c-2.18,1.28-3.89,3.01-5.15,5.18v55.73h-20.95V245.87h20.95V287.32z"/>
		<path class="st0" d="M549.9,317.26c0-5.7,0.82-10.99,2.46-15.87c1.64-4.88,4.03-9.1,7.18-12.65c3.14-3.55,7.02-6.34,11.63-8.37
			c4.61-2.03,9.87-3.04,15.76-3.04c5.94,0,11.23,1.01,15.87,3.04c4.64,2.03,8.54,4.82,11.71,8.37c3.16,3.55,5.57,7.77,7.21,12.65
			c1.64,4.88,2.46,10.17,2.46,15.87v1.52c0,5.75-0.82,11.05-2.46,15.91c-1.64,4.86-4.05,9.06-7.21,12.61
			c-3.17,3.55-7.04,6.33-11.63,8.34c-4.59,2-9.86,3.01-15.8,3.01c-5.94,0-11.22-1-15.84-3.01c-4.61-2-8.5-4.78-11.67-8.34
			c-3.17-3.55-5.57-7.75-7.21-12.61c-1.64-4.86-2.46-10.16-2.46-15.91V317.26z M570.84,318.78c0,3.19,0.29,6.19,0.87,8.99
			s1.51,5.23,2.79,7.28c1.28,2.05,2.95,3.68,5,4.89c2.05,1.21,4.58,1.81,7.57,1.81c2.9,0,5.37-0.6,7.43-1.81
			c2.05-1.21,3.73-2.84,5.04-4.89c1.3-2.05,2.25-4.48,2.83-7.28c0.58-2.8,0.87-5.8,0.87-8.99v-1.52c0-3.09-0.29-6.03-0.87-8.81
			c-0.58-2.78-1.52-5.22-2.83-7.32s-3-3.77-5.07-5c-2.08-1.23-4.59-1.85-7.54-1.85c-2.9,0-5.38,0.62-7.43,1.85
			c-2.05,1.23-3.72,2.9-5,5c-1.28,2.1-2.21,4.54-2.79,7.32c-0.58,2.78-0.87,5.71-0.87,8.81V318.78z"/>
		<path class="st0" d="M707.68,318.71c0,5.7-0.66,10.99-1.99,15.87c-1.33,4.88-3.27,9.1-5.83,12.65c-2.56,3.55-5.74,6.34-9.53,8.37
			c-3.79,2.03-8.15,3.04-13.08,3.04c-4.16,0-7.82-0.72-10.98-2.17c-3.16-1.45-5.91-3.48-8.23-6.09v36.96h-20.95V278.77h19.42
			l0.72,7.68c2.42-2.9,5.23-5.15,8.44-6.74c3.21-1.59,7.02-2.39,11.41-2.39c4.98,0,9.37,0.95,13.19,2.86
			c3.82,1.91,7.01,4.61,9.57,8.12c2.56,3.5,4.51,7.71,5.83,12.61c1.33,4.9,1.99,10.33,1.99,16.27V318.71z M686.73,317.18
			c0-3.24-0.28-6.24-0.83-9.02c-0.56-2.78-1.44-5.19-2.65-7.25c-1.21-2.05-2.77-3.66-4.67-4.82c-1.91-1.16-4.24-1.74-6.99-1.74
			c-3.43,0-6.25,0.64-8.44,1.92c-2.2,1.28-3.9,3.15-5.11,5.62V334c1.21,2.42,2.91,4.31,5.11,5.69c2.2,1.38,5.06,2.07,8.59,2.07
			c2.75,0,5.09-0.6,6.99-1.81c1.91-1.21,3.45-2.86,4.64-4.96c1.18-2.1,2.04-4.55,2.57-7.36c0.53-2.8,0.8-5.77,0.8-8.91V317.18z"/>
	</g>
</g>
</svg>
