<?xml version="1.0" encoding="utf-8"?>
<!-- Generator: Adobe Illustrator 24.2.1, SVG Export Plug-In . SVG Version: 6.00 Build 0)  -->
<svg version="1.1" id="Layer_1" xmlns="http://www.w3.org/2000/svg" xmlns:xlink="http://www.w3.org/1999/xlink" x="0px" y="0px"
	 viewBox="0 0 800 600" style="enable-background:new 0 0 800 600;" xml:space="preserve">
<style type="text/css">
	.st0{fill:#122346;}
	.st1{fill:#FFFFFF;}
	.st2{fill:#EDB902;}
</style>
<rect class="st0" width="800" height="600"/>
<g>
	<g>
		<g>
			<path class="st1" d="M504.84,155.49h-38.65c0,0,3.39-65.26-63.72-65.26c0,0-60.93-0.31-60.62,65.26h-38.67l-16.89,183.67
				c-1.23,13.32,9.26,24.82,22.64,24.82h193.99c13.57,0,24.11-11.8,22.59-25.28L504.84,155.49z M360.71,154.88
				c0,0,0.87-45.95,45.47-45.78c0,0,40.51,0,42.68,47.33L360.71,154.88z"/>
			<path class="st2" d="M468.39,290.74H340.87c-4.59,0-8.31,3.72-8.31,8.31v11.73H476.7v-11.73
				C476.7,294.46,472.98,290.74,468.39,290.74z"/>
			<path class="st2" d="M464.17,268.85c-6.59-24.67-29.06-41.76-54.6-41.76v-3.97c3.18-1.39,5.49-4.09,6.04-7.3
				c0.1-0.5,0.15-1.02,0.15-1.53c0-2.55-1.08-4.88-2.89-6.62c-2.04-1.99-4.99-3.25-8.27-3.25c-3.96,0-7.43,1.83-9.4,4.56
				c-1.13,1.53-1.78,3.36-1.78,5.31c0,0.16,0,0.32,0.03,0.48c0.21,4.26,3.49,7.82,7.93,8.98v3.34h-0.63
				c-23.32,0-44.42,14.25-52.71,36.04c-2.46,6.44-4.41,14.02-5.59,22.89h124.65C467.11,286.02,466.75,278.54,464.17,268.85z"/>
		</g>
	</g>
	<g>
		<g>
			<path class="st1" d="M229.7,468.35h46.27v15.19h-69.91v-11.09l45.39-65.37h-45.32v-15.32h68.84v10.84L229.7,468.35z"/>
			<g>
				<path class="st2" d="M306.26,393.93c-0.48-1.16-1.17-2.15-2.05-2.99c-0.88-0.84-1.95-1.49-3.21-1.95
					c-1.26-0.46-2.67-0.69-4.22-0.69c-3.15,0-5.64,0.88-7.47,2.65c-1.83,1.76-2.74,4.01-2.74,6.74c0,1.39,0.24,2.66,0.72,3.81
					c0.48,1.16,1.17,2.15,2.05,2.99c0.88,0.84,1.95,1.49,3.22,1.95c1.26,0.46,2.67,0.69,4.22,0.69c1.55,0,2.96-0.23,4.22-0.69
					c1.26-0.46,2.33-1.11,3.21-1.95c0.88-0.84,1.57-1.84,2.05-2.99c0.48-1.16,0.72-2.43,0.72-3.81
					C306.99,396.34,306.75,395.09,306.26,393.93z"/>
				<rect x="287.63" y="415.33" class="st1" width="18.28" height="68.21"/>
			</g>
			<path class="st1" d="M357.86,464.69c0-0.97-0.19-1.85-0.57-2.65c-0.38-0.8-1.09-1.54-2.14-2.24c-1.05-0.69-2.48-1.36-4.29-1.99
				c-1.81-0.63-4.14-1.24-7-1.83c-3.49-0.76-6.71-1.7-9.68-2.84c-2.96-1.13-5.53-2.54-7.69-4.22c-2.16-1.68-3.86-3.63-5.07-5.86
				c-1.22-2.23-1.83-4.81-1.83-7.75c0-2.86,0.62-5.57,1.86-8.13c1.24-2.56,3.03-4.82,5.36-6.78c2.33-1.95,5.19-3.5,8.57-4.63
				c3.38-1.13,7.2-1.7,11.44-1.7c4.41,0,8.38,0.55,11.91,1.64c3.53,1.09,6.52,2.62,8.98,4.57c2.46,1.95,4.35,4.28,5.67,6.97
				c1.32,2.69,1.99,5.63,1.99,8.83h-18.22c0-2.61-0.84-4.76-2.52-6.46c-1.68-1.7-4.31-2.55-7.88-2.55c-3.07,0-5.44,0.69-7.12,2.08
				c-1.68,1.39-2.52,3.15-2.52,5.3c0,1.01,0.22,1.9,0.66,2.68c0.44,0.78,1.15,1.49,2.14,2.14c0.99,0.65,2.29,1.25,3.91,1.8
				c1.62,0.55,3.6,1.05,5.96,1.51c3.7,0.71,7.12,1.6,10.27,2.65c3.15,1.05,5.87,2.41,8.16,4.07c2.29,1.66,4.09,3.68,5.39,6.05
				c1.3,2.38,1.95,5.24,1.95,8.61c0,3.03-0.67,5.81-2.02,8.35c-1.35,2.54-3.27,4.74-5.77,6.59c-2.5,1.85-5.52,3.3-9.05,4.35
				c-3.53,1.05-7.48,1.58-11.85,1.58c-4.79,0-9.01-0.67-12.67-2.02c-3.66-1.34-6.73-3.11-9.23-5.3c-2.5-2.18-4.38-4.64-5.64-7.38
				c-1.26-2.73-1.89-5.48-1.89-8.26h17.27c0.08,1.77,0.47,3.29,1.17,4.57c0.69,1.28,1.61,2.32,2.74,3.12
				c1.13,0.8,2.45,1.39,3.94,1.77c1.49,0.38,3.06,0.57,4.7,0.57c3.49,0,6.12-0.66,7.91-1.99
				C356.97,468.57,357.86,466.84,357.86,464.69z"/>
			<path class="st1" d="M405.08,422.77c2.27-2.73,4.93-4.86,7.97-6.4c3.05-1.53,6.46-2.3,10.24-2.3c3.36,0,6.43,0.47,9.2,1.42
				c2.77,0.95,5.15,2.48,7.12,4.6c1.98,2.12,3.5,4.86,4.57,8.23c1.07,3.36,1.61,7.44,1.61,12.23v42.99h-18.22v-43.12
				c0-2.18-0.24-4.01-0.72-5.48c-0.48-1.47-1.19-2.66-2.11-3.56c-0.92-0.9-2.07-1.54-3.44-1.92c-1.37-0.38-2.91-0.57-4.63-0.57
				c-2.86,0-5.23,0.56-7.12,1.67c-1.89,1.11-3.38,2.62-4.48,4.51v48.48h-18.22v-96.83h18.22V422.77z"/>
			<path class="st1" d="M456.7,448.81c0-4.96,0.71-9.56,2.14-13.81c1.43-4.24,3.51-7.91,6.24-11c2.73-3.09,6.1-5.52,10.12-7.28
				c4.01-1.77,8.58-2.65,13.71-2.65c5.17,0,9.77,0.88,13.8,2.65c4.03,1.77,7.43,4.19,10.18,7.28c2.75,3.09,4.84,6.76,6.27,11
				c1.43,4.25,2.14,8.85,2.14,13.81v1.32c0,5-0.72,9.61-2.14,13.84c-1.43,4.22-3.52,7.88-6.27,10.97
				c-2.75,3.09-6.13,5.51-10.12,7.25c-3.99,1.74-8.57,2.62-13.74,2.62c-5.17,0-9.76-0.87-13.77-2.62c-4.01-1.74-7.4-4.16-10.15-7.25
				c-2.75-3.09-4.84-6.74-6.27-10.97c-1.43-4.22-2.14-8.84-2.14-13.84V448.81z M474.92,450.13c0,2.77,0.25,5.38,0.76,7.82
				s1.31,4.55,2.43,6.33c1.11,1.79,2.56,3.21,4.35,4.25c1.79,1.05,3.98,1.58,6.59,1.58c2.52,0,4.67-0.52,6.46-1.58
				c1.79-1.05,3.25-2.47,4.38-4.25c1.13-1.79,1.95-3.9,2.46-6.33s0.76-5.04,0.76-7.82v-1.32c0-2.69-0.25-5.24-0.76-7.66
				c-0.5-2.42-1.32-4.54-2.46-6.37c-1.13-1.83-2.61-3.28-4.41-4.35c-1.81-1.07-3.99-1.61-6.56-1.61c-2.52,0-4.68,0.54-6.46,1.61
				c-1.79,1.07-3.24,2.52-4.35,4.35c-1.11,1.83-1.92,3.95-2.43,6.37c-0.5,2.42-0.76,4.97-0.76,7.66V450.13z"/>
			<path class="st1" d="M593.94,450.07c0,4.96-0.58,9.56-1.73,13.8c-1.16,4.25-2.85,7.91-5.07,11c-2.23,3.09-4.99,5.52-8.29,7.28
				c-3.3,1.77-7.09,2.65-11.38,2.65c-3.61,0-6.8-0.63-9.55-1.89c-2.75-1.26-5.14-3.03-7.15-5.3v32.15h-18.22v-94.43h16.89l0.63,6.68
				c2.1-2.52,4.55-4.48,7.34-5.86c2.79-1.39,6.1-2.08,9.93-2.08c4.33,0,8.15,0.83,11.47,2.49c3.32,1.66,6.09,4.01,8.32,7.06
				c2.23,3.05,3.92,6.7,5.07,10.97c1.16,4.27,1.73,8.98,1.73,14.15V450.07z M575.72,448.74c0-2.81-0.24-5.43-0.72-7.85
				c-0.48-2.42-1.25-4.52-2.3-6.3c-1.05-1.79-2.41-3.18-4.07-4.19c-1.66-1.01-3.69-1.51-6.08-1.51c-2.98,0-5.43,0.56-7.34,1.67
				c-1.91,1.11-3.39,2.74-4.44,4.89v27.93c1.05,2.1,2.53,3.75,4.44,4.95c1.91,1.2,4.4,1.8,7.47,1.8c2.4,0,4.42-0.52,6.08-1.58
				c1.66-1.05,3-2.49,4.03-4.32c1.03-1.83,1.77-3.96,2.24-6.4c0.46-2.44,0.69-5.02,0.69-7.75V448.74z"/>
		</g>
	</g>
</g>
</svg>
