<?xml version="1.0" encoding="utf-8"?>
<!-- Generator: Adobe Illustrator 24.2.1, SVG Export Plug-In . SVG Version: 6.00 Build 0)  -->
<svg version="1.1" id="Layer_1" xmlns="http://www.w3.org/2000/svg" xmlns:xlink="http://www.w3.org/1999/xlink" x="0px" y="0px"
	 viewBox="0 0 800 600" style="enable-background:new 0 0 800 600;" xml:space="preserve">
<style type="text/css">
	.st0{fill:#122346;}
	.st1{fill:#EDB902;}
</style>
<g>
	<g>
		<g>
			<path class="st0" d="M498.63,164.05h-36.36c0,0,3.19-61.39-59.95-61.39c0,0-57.32-0.29-57.03,61.39h-36.38l-15.89,172.79
				c-1.15,12.53,8.71,23.35,21.3,23.35h182.5c12.76,0,22.68-11.1,21.25-23.79L498.63,164.05z M363.04,163.48
				c0,0,0.82-43.23,42.78-43.07c0,0,38.11,0,40.15,44.52L363.04,163.48z"/>
			<path class="st1" d="M463.85,291.29H344.86c-4.59,0-8.31,3.72-8.31,8.31v10.54h135.6v-10.54
				C472.16,295.01,468.44,291.29,463.85,291.29z"/>
			<path class="st1" d="M460.37,270.7c-6.2-23.2-27.34-39.28-51.36-39.28v-3.74c2.99-1.31,5.17-3.84,5.68-6.87
				c0.09-0.47,0.14-0.96,0.14-1.44c0-2.4-1.02-4.59-2.72-6.23c-1.91-1.87-4.7-3.05-7.78-3.05c-3.72,0-6.99,1.72-8.84,4.29
				c-1.06,1.44-1.67,3.16-1.67,5c0,0.15,0,0.3,0.03,0.46c0.2,4.01,3.28,7.35,7.46,8.45v3.15h-0.59c-21.94,0-41.79,13.4-49.58,33.9
				c-2.31,6.06-4.15,13.19-5.26,21.53h117.27C463.13,286.85,462.8,279.82,460.37,270.7z"/>
		</g>
	</g>
	<g>
		<g>
			<path class="st0" d="M239.79,458.38h43.53v14.29h-65.77v-10.44l42.7-61.5h-42.64v-14.41h64.76v10.2L239.79,458.38z"/>
			<g>
				<path class="st1" d="M311.82,388.37c-0.45-1.09-1.1-2.03-1.93-2.82c-0.83-0.79-1.84-1.4-3.02-1.84
					c-1.19-0.43-2.51-0.65-3.97-0.65c-2.97,0-5.31,0.83-7.03,2.49c-1.72,1.66-2.58,3.78-2.58,6.35c0,1.3,0.23,2.5,0.68,3.59
					c0.45,1.09,1.1,2.03,1.93,2.82c0.83,0.79,1.84,1.4,3.02,1.84c1.19,0.44,2.51,0.65,3.97,0.65c1.46,0,2.79-0.22,3.97-0.65
					c1.19-0.43,2.19-1.05,3.02-1.84c0.83-0.79,1.47-1.73,1.93-2.82c0.45-1.09,0.68-2.28,0.68-3.59
					C312.5,390.63,312.27,389.46,311.82,388.37z"/>
				<rect x="294.29" y="408.5" class="st0" width="17.2" height="64.17"/>
			</g>
			<path class="st0" d="M360.36,454.94c0-0.91-0.18-1.74-0.53-2.49c-0.36-0.75-1.03-1.45-2.02-2.11c-0.99-0.65-2.33-1.28-4.03-1.87
				c-1.7-0.59-3.89-1.17-6.58-1.72c-3.28-0.71-6.32-1.6-9.1-2.67c-2.79-1.07-5.2-2.39-7.24-3.97c-2.04-1.58-3.63-3.42-4.77-5.52
				c-1.15-2.1-1.72-4.53-1.72-7.29c0-2.69,0.58-5.24,1.75-7.65c1.17-2.41,2.85-4.54,5.04-6.38c2.19-1.84,4.88-3.29,8.07-4.36
				c3.18-1.07,6.77-1.6,10.76-1.6c4.15,0,7.89,0.51,11.21,1.54c3.32,1.03,6.14,2.46,8.45,4.3c2.31,1.84,4.09,4.02,5.34,6.55
				c1.25,2.53,1.87,5.3,1.87,8.3H359.7c0-2.45-0.79-4.48-2.37-6.08c-1.58-1.6-4.05-2.4-7.41-2.4c-2.89,0-5.12,0.65-6.7,1.96
				c-1.58,1.3-2.37,2.97-2.37,4.98c0,0.95,0.21,1.79,0.62,2.52c0.41,0.73,1.09,1.4,2.02,2.02c0.93,0.61,2.15,1.18,3.68,1.69
				c1.52,0.51,3.39,0.99,5.6,1.42c3.48,0.67,6.7,1.5,9.67,2.49c2.97,0.99,5.52,2.26,7.68,3.83c2.15,1.56,3.84,3.46,5.07,5.69
				c1.23,2.23,1.84,4.93,1.84,8.1c0,2.85-0.63,5.47-1.9,7.86c-1.27,2.39-3.07,4.46-5.43,6.2c-2.35,1.74-5.19,3.1-8.51,4.09
				c-3.32,0.99-7.04,1.48-11.15,1.48c-4.51,0-8.48-0.63-11.92-1.9c-3.44-1.27-6.34-2.93-8.69-4.98c-2.35-2.06-4.12-4.37-5.31-6.94
				c-1.19-2.57-1.78-5.16-1.78-7.77h16.25c0.08,1.66,0.45,3.09,1.1,4.3c0.65,1.21,1.51,2.18,2.58,2.94c1.07,0.75,2.3,1.3,3.71,1.66
				c1.4,0.36,2.88,0.53,4.42,0.53c3.28,0,5.76-0.62,7.44-1.87C359.51,458.58,360.36,456.95,360.36,454.94z"/>
			<path class="st0" d="M404.77,415.5c2.13-2.57,4.63-4.58,7.5-6.02c2.87-1.44,6.08-2.16,9.64-2.16c3.16,0,6.05,0.44,8.66,1.33
				c2.61,0.89,4.84,2.33,6.7,4.33c1.86,2,3.29,4.58,4.3,7.74c1.01,3.16,1.51,7,1.51,11.5v40.44h-17.14V432.1
				c0-2.06-0.23-3.78-0.68-5.16c-0.46-1.38-1.12-2.5-1.99-3.35c-0.87-0.85-1.95-1.45-3.23-1.81c-1.28-0.36-2.74-0.53-4.36-0.53
				c-2.69,0-4.92,0.52-6.7,1.57c-1.78,1.05-3.18,2.46-4.21,4.24v45.6h-17.14v-91.09h17.14V415.5z"/>
			<path class="st0" d="M453.34,439.99c0-4.66,0.67-8.99,2.02-12.99c1.34-3.99,3.3-7.44,5.87-10.35c2.57-2.91,5.74-5.19,9.52-6.85
				c3.78-1.66,8.07-2.49,12.9-2.49c4.86,0,9.19,0.83,12.99,2.49c3.8,1.66,6.99,3.94,9.58,6.85c2.59,2.91,4.56,6.36,5.9,10.35
				c1.34,3.99,2.02,8.32,2.02,12.99v1.25c0,4.71-0.67,9.04-2.02,13.02c-1.34,3.97-3.31,7.41-5.9,10.32
				c-2.59,2.91-5.76,5.18-9.52,6.82c-3.76,1.64-8.07,2.46-12.93,2.46c-4.86,0-9.18-0.82-12.96-2.46c-3.78-1.64-6.96-3.91-9.55-6.82
				c-2.59-2.91-4.56-6.34-5.9-10.32c-1.34-3.97-2.02-8.31-2.02-13.02V439.99z M470.48,441.24c0,2.61,0.24,5.06,0.71,7.35
				c0.47,2.29,1.24,4.28,2.28,5.96c1.05,1.68,2.41,3.02,4.09,4c1.68,0.99,3.75,1.48,6.2,1.48c2.37,0,4.4-0.49,6.08-1.48
				c1.68-0.99,3.05-2.32,4.12-4c1.07-1.68,1.84-3.67,2.31-5.96c0.47-2.29,0.71-4.74,0.71-7.35v-1.25c0-2.53-0.24-4.93-0.71-7.21
				c-0.47-2.27-1.25-4.27-2.31-5.99c-1.07-1.72-2.45-3.08-4.15-4.09c-1.7-1.01-3.76-1.51-6.17-1.51c-2.37,0-4.4,0.5-6.08,1.51
				c-1.68,1.01-3.04,2.37-4.09,4.09c-1.05,1.72-1.81,3.72-2.28,5.99c-0.47,2.27-0.71,4.68-0.71,7.21V441.24z"/>
			<path class="st0" d="M582.45,441.18c0,4.67-0.54,8.99-1.63,12.99c-1.09,3.99-2.68,7.44-4.77,10.35c-2.1,2.91-4.7,5.19-7.8,6.85
				c-3.1,1.66-6.67,2.49-10.7,2.49c-3.4,0-6.4-0.59-8.98-1.78c-2.59-1.19-4.83-2.85-6.73-4.98v30.25h-17.14V408.5h15.89l0.59,6.29
				c1.98-2.37,4.28-4.21,6.91-5.52c2.63-1.3,5.74-1.96,9.34-1.96c4.07,0,7.67,0.78,10.79,2.34c3.12,1.56,5.73,3.78,7.83,6.64
				c2.1,2.87,3.69,6.31,4.77,10.32c1.09,4.01,1.63,8.45,1.63,13.31V441.18z M565.31,439.93c0-2.65-0.23-5.11-0.68-7.38
				c-0.45-2.27-1.18-4.25-2.16-5.93c-0.99-1.68-2.26-2.99-3.83-3.94c-1.56-0.95-3.47-1.42-5.72-1.42c-2.81,0-5.11,0.52-6.91,1.57
				c-1.8,1.05-3.19,2.58-4.18,4.6v26.27c0.99,1.98,2.38,3.53,4.18,4.65c1.8,1.13,4.14,1.69,7.03,1.69c2.25,0,4.16-0.49,5.72-1.48
				c1.56-0.99,2.83-2.34,3.8-4.06c0.97-1.72,1.67-3.73,2.11-6.02c0.43-2.29,0.65-4.72,0.65-7.29V439.93z"/>
		</g>
	</g>
</g>
</svg>
